# xmcd
#
# Track frame offsets:
#	150
#	16608
#	31299
#	46879
#	59993
#	76283
#	91879
#	108427
#	125670
#	145391
#	160852
#	176221
#	195003
#
# Disc length: 2847 seconds
#
# Revision: 1
# Processed by: cddbd v1.5.1PL0 Copyright (c) Steve Scherf et al.
# Submitted via: audiograbber 1.80
#
DISCID=a70b1d0d
DTITLE=Popsas uzkniso juodai - Popsas uzkniso juodai
DYEAR=1900
DGENRE=
TTITLE0=Weekends su marijonu ir psichu - ateities cempionai
TTITLE1=brainers - superman
TTITLE2=inculto feat. linas karalius - jei labai nori
TTITLE3=relanium - just be
TTITLE4=psycho - neiseik
TTITLE5=skliautai - kaledos
TTITLE6=relanium - kalta ir prakeikta
TTITLE7=skyders - retro
TTITLE8=ir - garbage star
TTITLE9=inculto - suk suk rateli
TTITLE10=weekends - padainuok
TTITLE11=psycho - nelaiminga meile
TTITLE12=brainers - zodziai
EXTD=
EXTT0=
EXTT1=
EXTT2=
EXTT3=
EXTT4=
EXTT5=
EXTT6=
EXTT7=
EXTT8=
EXTT9=
EXTT10=
EXTT11=
EXTT12=
PLAYORDER=
